<svg id="Artwork" xmlns="http://www.w3.org/2000/svg" viewBox="0 0 825.704 304.186"><defs><style>.cls-1 { fill: #e03a3e; } .cls-2 { fill: #6d6e71; }</style></defs><title>Artboard 1</title><g><path class="cls-1" d="M315.047 83.94c0 27.183 20.125 47.252 53.778 47.252 14.206 0 27.565-2.224 41.41-8.684l12.62 17.157c-17.443 9.2-34.187 14.045-59.92 14.045-53.682 0-93.138-25.86-93.138-69.752v-.02c0-43.89 39.455-69.726 93.14-69.726 25.73 0 40.544 3.746 58.65 11.52l-12.907 19.75c-13.723-7.287-25.65-8.787-39.855-8.787-33.654 0-53.778 20.042-53.778 47.226m204.81-69.75c-51.967 0-89.445 25.88-89.445 69.77 0 43.91 37.48 69.77 89.446 69.77 51.988 0 89.476-25.86 89.476-69.77 0-43.89-37.487-69.77-89.476-69.77m0 117.84c-28.58 0-44.36-21.48-44.36-48.08 0-26.59 15.78-48.08 44.36-48.08s44.392 21.49 44.392 48.08c0 26.6-15.8 48.08-44.392 48.08M744.43 94.04v56.14h42.952V17.673h-42.95V68.22h-65.65V17.672h-42.85v132.505h42.85v-56.14h65.65zM198.674 17.675h45.23v132.502h-45.23zM68.95 78.335V91a337.92 337.92 0 0 1 58.83 59.177h50.634c-17.614-20.69-44.637-45.277-64.546-57.66 23.372-.954 49.4-10.42 49.4-37.242 0-34.392-36.776-40.713-73.95-40.713-30.366 0-58.346 1.4-75.144 2.778v132.838h42.25V37.342a264.9 264.9 0 0 1 33.092-1.782c21.747 0 32.756 7.19 32.756 19.714 0 10.71-4.558 23.532-53.323 23.06"/><path class="cls-2" d="M17.59 189.926h10.8v10.485h-10.8zm0 21.6h10.8v54.016h-10.8zm91.67 54.02v-34.678c0-6.585-2.05-11.987-9.616-11.987-8.857 0-11.987 8.91-11.987 17.23v29.44h-10.8v-34.68c0-6.58-2.054-11.98-9.608-11.98-8.87 0-12.1 8.91-12.1 17.23v29.44h-10.8v-41.6a122 122 0 0 0-.54-12.42h10.14l.32 9.29c3.56-6.9 9.18-10.36 16.51-10.36 8.54 0 14.15 5.08 15.78 11.02 2.59-6.7 9.61-11.014 16.53-11.014 11.76 0 17.05 8 17.05 19.12v35.973zm487.61 0l-.328-8.54c-7.73 14.432-34.885 12.91-34.885-5.723 0-14.038 13.436-19.8 34.56-18.8 0-.074 1.16-10.154-5.8-13.266-4.537-2.024-14.22-1.72-22.4 3.11l-.647-8.31c12.552-5.184 39.432-8.44 39.432 16.58v22.95a99.794 99.794 0 0 0 .643 12zm-10.58-6.82c7.926-1.88 10.265-9.88 9.927-19.653 0 0-24.53-1.977-23.87 11.62.39 7.975 8.068 9.44 13.942 8.033m-420.09 6.82l-.33-8.54c-7.73 14.432-34.89 12.91-34.89-5.723 0-14.038 13.43-19.8 34.56-18.8 0-.074 1.16-10.154-5.8-13.266-4.54-2.024-14.22-1.72-22.4 3.11l-.65-8.31c12.55-5.184 39.43-8.44 39.43 16.58v22.95a99.41 99.41 0 0 0 .64 12zm-10.58-6.82c7.92-1.88 10.26-9.88 9.92-19.653 0 0-24.53-1.977-23.87 11.62.38 7.975 8.06 9.44 13.94 8.033m527.36 28.412l.65-9.18a34.33 34.33 0 0 0 16.08 3.89c18.68-.293 17.6-15.8 17.6-25.706 0 0-5.4 9.35-16.74 9.4-15.776.048-21.93-13.728-21.93-27.218 0-14.37 6.155-27.874 22.15-27.874 7.446 0 13.5 3.244 16.956 10.042v-8.966h10.37v50.984c0 30.08-26.75 30.32-45.15 24.624m20.954-68.368c-11.12 0-13.605 10.58-13.605 19.658 0 8.418 2.592 18.8 13.5 18.8 10.474 0 13.826-10.6 13.826-18.8 0-8.636-3.25-19.658-13.72-19.658M191.9 287.138l.65-9.18a34.365 34.365 0 0 0 16.09 3.89c18.694-.293 17.607-15.8 17.607-25.706 0 0-5.395 9.35-16.737 9.4-15.775.048-21.934-13.728-21.934-27.218 0-14.37 6.16-27.874 22.145-27.874 7.45 0 13.5 3.244 16.97 10.042v-8.966h10.36v50.984c0 30.08-26.74 30.32-45.14 24.624m20.96-68.368c-11.13 0-13.62 10.58-13.62 19.658 0 8.418 2.59 18.8 13.505 18.8 10.475 0 13.823-10.6 13.823-18.8 0-8.636-3.242-19.658-13.715-19.658m40.165-28.84h10.795v10.485h-10.79zm0 21.6h10.795v54.016h-10.79zm497.79 29.816c.628 18.87 17.426 21.246 32.4 14.038l.65 8.43c-21.7 7.03-44.18 2.886-44.18-25.488 0-14.8 9.4-27.868 24.41-27.868 25.457 0 22.575 30.89 22.575 30.89zm13.4-23.44c-9.19 0-13.51 9.834-13.51 16.75h25.6c0-7.678-2.92-16.75-12.1-16.75m-415.86 23.44c.63 18.87 17.43 21.246 32.415 14.038l.647 8.43c-21.703 7.03-44.18 2.886-44.18-25.488 0-14.8 9.41-27.868 24.413-27.868 25.457 0 22.58 30.89 22.58 30.89zm13.395-23.44c-9.183 0-13.493 9.834-13.493 16.75h25.597c0-7.678-2.91-16.75-12.1-16.75m35.767 36.51h11.56v11.13H397.5zm49.71-16.092c0-24.564 23.69-32.48 44.31-25.6l-.644 8.637c-13.5-6.313-32-2.376-32 16.968 0 18.727 17.63 24.107 32.11 17.714l.534 8.53c-17.1 5.84-44.31 1.37-44.31-26.25m85.01-27.87c-7.56 0-13.39 3.35-16.74 10.04v-30.57h-10.8v75.61h10.8v-28.28c0-8.43 3.242-18.38 13.18-18.38 9.28 0 10.7 7.09 10.7 14.79v31.86h10.9V231.4c0-12.316-5.068-20.952-18.03-20.952m123.934 55.09v-31.87c0-7.557-1.4-14.793-10.7-14.793-10.035 0-13.165 9.16-13.165 17.68v28.99h-10.8v-41.59a118.883 118.883 0 0 0-.542-12.425h10.15l.33 9.29c3.68-6.81 9.72-10.366 17.5-10.366 13.39 0 18.15 8.536 18.15 20.954v34.14zm-341.422 0v-31.87c0-7.557-1.4-14.793-10.7-14.793-10.04 0-13.17 9.16-13.17 17.68v28.99h-10.8v-41.59a118.882 118.882 0 0 0-.547-12.425h10.16l.32 9.29c3.68-6.81 9.73-10.366 17.5-10.366 13.4 0 18.15 8.536 18.15 20.954v34.14zm485.216-11.134h11.555v11.136h-11.55z"/></g></svg>