<?xml version="1.0" encoding="UTF-8"?>
<svg xmlns="http://www.w3.org/2000/svg" width="62" height="62" viewBox="0 0 62 62" fill="none"><path d="M31.025 41.7937V61M28.8754 1L30.2152 20.1663M32.5248 41.6834L35.1944 60.6997M24.7261 1.5901L28.7254 20.3763M34.0046 41.3635L39.2937 59.8295M20.7065 2.751L27.2754 20.797M35.4244 40.8432L43.233 58.389M16.8775 4.46138L25.896 21.417M36.7541 40.1333L46.9224 56.4186M13.3279 6.68186L24.616 22.217M37.9736 39.2427L50.3115 53.9575M10.1286 9.37284L23.4563 23.1974M39.0537 38.1925L53.3213 51.0467M7.32893 12.4937L22.4564 24.3176M39.9836 37.002L55.901 47.7356M4.98963 15.9651L21.6068 25.5683M40.7334 35.6916L57.9905 44.1044M3.14962 19.7362L20.9466 26.9286M41.2933 34.291L59.5502 40.2229M1.8598 23.7274L20.4867 28.369M41.6632 32.8207L60.56 36.1518M1.14022 27.8491L20.227 29.8598M41.8132 31.3202L61 31.9904M1 32.0404L20.1768 31.3702M41.7532 29.8094L60.85 27.7988M1.44004 36.2018L20.3369 32.8707M41.4933 28.3192L60.1201 23.6777M2.44986 40.2729L20.7068 34.3309M41.0236 26.8885L58.8206 19.6861M4.02985 44.1547L21.2769 35.7319M40.3534 25.528L56.9805 15.9248M6.11914 47.7855L22.0365 37.042M39.5136 24.2776L54.6411 12.4537M8.69888 51.0764L22.9665 38.2322M38.4939 23.1575L51.8316 9.34294M11.7183 53.9875L24.0563 39.2726M37.3338 22.1871L48.6219 6.65196M15.1076 56.4482L25.2859 40.1628M36.054 21.3967L45.0625 4.43115M18.8071 58.4088L26.6158 40.863M34.6742 20.7765L41.2431 2.73058M22.7462 59.8394L28.0353 41.3833M33.2244 20.3665L37.2137 1.58028M26.8458 60.7099L29.5154 41.6936M31.7249 20.1563L33.0647 1" stroke="white" stroke-width="1.5" stroke-miterlimit="10" stroke-linecap="round" stroke-linejoin="round"/></svg>